<!DOCTYPE svg PUBLIC "-//W3C//DTD SVG 1.1//EN" "http://www.w3.org/Graphics/SVG/1.1/DTD/svg11.dtd">
<!-- Uploaded to: SVG Repo, www.svgrepo.com, Transformed by: SVG Repo Mixer Tools -->
<svg fill="#000000" height="800px" width="800px" version="1.1" id="Layer_1" xmlns="http://www.w3.org/2000/svg" xmlns:xlink="http://www.w3.org/1999/xlink" viewBox="0 0 512.001 512.001" xml:space="preserve">
<g id="SVGRepo_bgCarrier" stroke-width="0"/>
<g id="SVGRepo_tracerCarrier" stroke-linecap="round" stroke-linejoin="round"/>
<g id="SVGRepo_iconCarrier"> <g> <g> <path d="M432.957,203.554l-58.539-33.012V70.593c0-3.16-1.702-6.076-4.455-7.627l-48.462-27.327 c-4.211-2.375-9.552-0.886-11.927,3.326c-2.376,4.212-0.886,9.552,3.326,11.927l34.936,19.7l-91.836,51.784l-91.836-51.784 l91.836-51.784l28.323,15.97c4.212,2.376,9.552,0.887,11.927-3.326c2.376-4.212,0.886-9.552-3.326-11.928L260.3,1.129 c-2.669-1.505-5.932-1.505-8.601,0L142.036,62.965c-2.753,1.553-4.455,4.468-4.455,7.627v99.957L79.05,203.552 c-2.724,1.535-4.413,4.406-4.449,7.527c-0.001,0.034-0.012,0.064-0.012,0.098v28.42c0,4.836,3.92,8.756,8.756,8.756 c4.836,0,8.756-3.92,8.756-8.756v-13.431l53.102,29.944v174.604l-53.102-29.942V268.787c0-4.836-3.92-8.756-8.756-8.756 c-4.836,0-8.756,3.92-8.756,8.756V405.89c0,3.16,1.702,6.076,4.455,7.627l172.654,97.355c1.334,0.753,2.818,1.129,4.301,1.129 c1.483,0,2.967-0.376,4.301-1.129l172.653-97.355c2.753-1.552,4.455-4.467,4.455-7.627V211.231c0-0.016,0.003-0.034,0.003-0.05 C437.412,208.02,435.71,205.106,432.957,203.554z M374.418,194.265v-3.619l36.411,20.534L358.28,240.81l-28.669-16.165 l40.352-22.753C372.716,200.339,374.418,197.424,374.418,194.265z M264.755,137.543l92.15-51.961v103.567l-92.15,51.961V137.543z M155.092,85.583l92.152,51.961v103.567l-92.152-51.961V85.583z M101.176,211.181l36.404-20.525v3.61 c0,3.16,1.702,6.076,4.455,7.627l40.472,22.821l-28.668,16.165L101.176,211.181z M177.11,448.707l-14.395-8.118V265.987 l14.395,8.117V448.707z M171.669,250.931l28.667-16.165l14.068,7.933l-28.667,16.165L171.669,250.931z M247.243,488.253 l-52.621-29.672V283.98l52.621,29.673V488.253z M255.998,298.485l-52.434-29.568l28.669-16.165l19.467,10.977 c1.334,0.753,2.818,1.129,4.301,1.129c1.483,0,2.967-0.376,4.301-1.129l19.588-11.046l28.668,16.165L255.998,298.485z M317.617,458.446l-52.861,29.807V313.651l52.861-29.807V458.446z M297.716,242.631l14.069-7.933l28.669,16.165l-14.07,7.933 L297.716,242.631z M419.896,400.773l-52.86,29.808V309.063c0-4.836-3.92-8.756-8.756-8.756s-8.756,3.92-8.756,8.756v131.392 l-14.395,8.117V273.969l14.395-8.117v14.024c0,4.836,3.92,8.756,8.756,8.756s8.756-3.92,8.756-8.756v-23.898l52.86-29.806V400.773 z"/> </g> </g> </g>
</svg>