<svg xmlns="http://www.w3.org/2000/svg" id="Layer_1" data-name="Layer 1" viewBox="0 0 24 24" width="300" height="300" version="1.1" xmlns:xlink="http://www.w3.org/1999/xlink" xmlns:svgjs="http://svgjs.dev/svgjs"><g width="100%" height="100%" transform="matrix(1,0,0,1,0,0)"><path d="M12,17a4,4,0,1,1,4-4A4,4,0,0,1,12,17Zm6,4a3,3,0,0,0-3-3H9a3,3,0,0,0-3,3v3H18ZM18,8a4,4,0,1,1,4-4A4,4,0,0,1,18,8ZM6,8a4,4,0,1,1,4-4A4,4,0,0,1,6,8Zm0,5A5.968,5.968,0,0,1,7.537,9H3a3,3,0,0,0-3,3v3H6.349A5.971,5.971,0,0,1,6,13Zm11.651,2H24V12a3,3,0,0,0-3-3H16.463a5.952,5.952,0,0,1,1.188,6Z" fill="#ffffff" fill-opacity="1" data-original-color="#000000ff" stroke="none" stroke-opacity="1"/></g></svg>